<svg xmlns="http://www.w3.org/2000/svg" width="1860" height="1053" viewBox="0 0 1860 1053" role="img" aria-labelledby="title desc">
  <title id="title">Task Dashboard preview</title>
  <desc id="desc">Preview of the Personal Task Tracker dashboard with task form, task list, and analytics chart.</desc>
  <defs>
    <style>
      .bg { fill: #f8fafc; }
      .card { fill: #ffffff; stroke: #d9e2ec; stroke-width: 1.4; }
      .muted-card { fill: #f8fafc; stroke: #edf2f7; stroke-width: 1; }
      .text { fill: #00122d; font-family: Inter, ui-sans-serif, system-ui, -apple-system, BlinkMacSystemFont, "Segoe UI", sans-serif; }
      .muted { fill: #1f406a; }
      .soft { fill: #7184a5; }
      .blue { fill: #2563eb; }
      .green { fill: #22c55e; }
      .line { stroke: #dde6f2; stroke-width: 1; }
      .axis { stroke: #94a3b8; stroke-width: 1.2; }
      .input { fill: #ffffff; stroke: #c9d6e8; stroke-width: 1.2; }
      .button { fill: #2563eb; }
      .button-soft { fill: #eff6ff; }
      .button-danger { fill: #fef2f2; }
      .shadow { filter: drop-shadow(0 1px 2px rgb(15 23 42 / 0.12)); }
    </style>
  </defs>

  <rect class="bg" width="1860" height="1053"/>

  <g transform="translate(128 45)">
    <text class="text blue" font-size="36" font-weight="800">Task Dashboard</text>
    <text class="text muted" y="34" font-size="20">Manage tasks and view real-time analytics.</text>
  </g>

  <g class="shadow" transform="translate(128 118)">
    <rect class="card" width="780" height="925" rx="14"/>
    <g transform="translate(30 40)">
      <text class="text" font-size="26" font-weight="700">Add a New Task</text>

      <rect class="input" y="46" width="718" height="46" rx="7"/>
      <text class="soft text" x="18" y="76" font-size="16">Task Title</text>

      <rect class="input" y="112" width="348" height="46" rx="7"/>
      <text class="text" x="20" y="142" font-size="16">Low Priority</text>
      <path d="M338 130l6 6 6-6" fill="none" stroke="#00122d" stroke-width="2" stroke-linecap="round" stroke-linejoin="round"/>

      <rect class="input" x="370" y="112" width="348" height="46" rx="7"/>
      <text class="text" x="390" y="142" font-size="16">To Do</text>
      <path d="M708 130l6 6 6-6" fill="none" stroke="#00122d" stroke-width="2" stroke-linecap="round" stroke-linejoin="round"/>

      <rect class="button" y="178" width="718" height="46" rx="7"/>
      <text fill="#ffffff" x="359" y="207" font-size="16" font-weight="700" text-anchor="middle" font-family="Inter, ui-sans-serif, system-ui, -apple-system, BlinkMacSystemFont, Segoe UI, sans-serif">Add Task</text>

      <line class="line" y1="255" x2="718" y2="255"/>

      <text class="text" y="315" font-size="26" font-weight="700">Your tasks (26)</text>
      <text class="muted text" x="632" y="312" font-size="16">Page 1 of 6</text>

      <g transform="translate(0 354)">
        <text class="text" font-size="20" font-weight="700">UI test</text>
        <text class="muted text" y="32" font-size="16">Priority: HIGH</text>
        <text class="muted text" x="124" y="32" font-size="16">Status: IN_PROGRESS</text>
        <rect class="button-soft" x="558" y="-8" width="76" height="30" rx="7"/>
        <text class="blue text" x="596" y="12" font-size="14" font-weight="700" text-anchor="middle">Toggle</text>
        <rect class="button-danger" x="644" y="-8" width="74" height="30" rx="7"/>
        <text fill="#dc2626" x="681" y="12" font-size="14" font-weight="700" text-anchor="middle" font-family="Inter, ui-sans-serif, system-ui, -apple-system, BlinkMacSystemFont, Segoe UI, sans-serif">Delete</text>
        <line class="line" y1="52" x2="718" y2="52"/>
      </g>

      <g transform="translate(0 445)">
        <text class="text" font-size="20" font-weight="700">Postman demo</text>
        <text class="muted text" y="32" font-size="16">Priority: HIGH</text>
        <text class="muted text" x="124" y="32" font-size="16">Status: TODO</text>
        <rect class="button-soft" x="558" y="-8" width="76" height="30" rx="7"/>
        <text class="blue text" x="596" y="12" font-size="14" font-weight="700" text-anchor="middle">Toggle</text>
        <rect class="button-danger" x="644" y="-8" width="74" height="30" rx="7"/>
        <text fill="#dc2626" x="681" y="12" font-size="14" font-weight="700" text-anchor="middle" font-family="Inter, ui-sans-serif, system-ui, -apple-system, BlinkMacSystemFont, Segoe UI, sans-serif">Delete</text>
        <line class="line" y1="52" x2="718" y2="52"/>
      </g>

      <g transform="translate(0 536)">
        <text class="text" font-size="20" font-weight="700">Assessment Task 4: Review module requirements</text>
        <text class="muted text" y="32" font-size="16">Priority: LOW</text>
        <text class="muted text" x="122" y="32" font-size="16">Status: DONE</text>
        <rect class="button-soft" x="558" y="-8" width="76" height="30" rx="7"/>
        <text class="blue text" x="596" y="12" font-size="14" font-weight="700" text-anchor="middle">Toggle</text>
        <rect class="button-danger" x="644" y="-8" width="74" height="30" rx="7"/>
        <text fill="#dc2626" x="681" y="12" font-size="14" font-weight="700" text-anchor="middle" font-family="Inter, ui-sans-serif, system-ui, -apple-system, BlinkMacSystemFont, Segoe UI, sans-serif">Delete</text>
        <line class="line" y1="52" x2="718" y2="52"/>
      </g>

      <g transform="translate(0 627)">
        <text class="text" font-size="20" font-weight="700">Assessment Task 5: Review module requirements</text>
        <text class="muted text" y="32" font-size="16">Priority: LOW</text>
        <text class="muted text" x="122" y="32" font-size="16">Status: TODO</text>
        <rect class="button-soft" x="558" y="-8" width="76" height="30" rx="7"/>
        <text class="blue text" x="596" y="12" font-size="14" font-weight="700" text-anchor="middle">Toggle</text>
        <rect class="button-danger" x="644" y="-8" width="74" height="30" rx="7"/>
        <text fill="#dc2626" x="681" y="12" font-size="14" font-weight="700" text-anchor="middle" font-family="Inter, ui-sans-serif, system-ui, -apple-system, BlinkMacSystemFont, Segoe UI, sans-serif">Delete</text>
        <line class="line" y1="52" x2="718" y2="52"/>
      </g>

      <g transform="translate(0 718)">
        <text class="text" font-size="20" font-weight="700">Assessment Task 2: Review module requirements</text>
        <text class="muted text" y="32" font-size="16">Priority: LOW</text>
        <text class="muted text" x="122" y="32" font-size="16">Status: TODO</text>
        <rect class="button-soft" x="558" y="-8" width="76" height="30" rx="7"/>
        <text class="blue text" x="596" y="12" font-size="14" font-weight="700" text-anchor="middle">Toggle</text>
        <rect class="button-danger" x="644" y="-8" width="74" height="30" rx="7"/>
        <text fill="#dc2626" x="681" y="12" font-size="14" font-weight="700" text-anchor="middle" font-family="Inter, ui-sans-serif, system-ui, -apple-system, BlinkMacSystemFont, Segoe UI, sans-serif">Delete</text>
        <line class="line" y1="52" x2="718" y2="52"/>
      </g>

      <rect fill="#cbd5e1" x="522" y="810" width="108" height="46" rx="7"/>
      <text fill="#ffffff" x="576" y="839" font-size="16" font-weight="700" text-anchor="middle" font-family="Inter, ui-sans-serif, system-ui, -apple-system, BlinkMacSystemFont, Segoe UI, sans-serif">Previous</text>
      <rect class="button" x="640" y="810" width="78" height="46" rx="7"/>
      <text fill="#ffffff" x="679" y="839" font-size="16" font-weight="700" text-anchor="middle" font-family="Inter, ui-sans-serif, system-ui, -apple-system, BlinkMacSystemFont, Segoe UI, sans-serif">Next</text>
    </g>
  </g>

  <g class="shadow" transform="translate(947 118)">
    <rect class="card" width="780" height="925" rx="14"/>
    <g transform="translate(30 40)">
      <text class="text" font-size="26" font-weight="700">Analytics Overview</text>

      <rect class="muted-card" y="56" width="350" height="122" rx="9"/>
      <text class="muted text" x="20" y="102" font-size="18">Completion Rate</text>
      <text class="text" x="20" y="145" font-size="40" font-weight="800">27%</text>
      <circle cx="288" cy="118" r="38" fill="none" stroke="#e2e8f0" stroke-width="13"/>
      <path d="M288 80a38 38 0 0 1 38 38" fill="none" stroke="#22c55e" stroke-width="13"/>

      <rect class="muted-card" x="370" y="56" width="350" height="122" rx="9"/>
      <text class="muted text" x="390" y="97" font-size="18">Total Tasks</text>
      <text class="text" x="390" y="141" font-size="40" font-weight="800">26</text>

      <text class="text" y="238" font-size="18" font-weight="700" letter-spacing="1.2">TASKS CREATED PER DAY</text>

      <g transform="translate(82 270)">
        <line class="axis" x1="0" y1="190" x2="630" y2="190"/>
        <line class="axis" y1="0" y2="190"/>
        <text class="soft text" x="-28" y="195" font-size="14">0</text>
        <text class="soft text" x="-30" y="147" font-size="14">7</text>
        <text class="soft text" x="-38" y="100" font-size="14">14</text>
        <text class="soft text" x="-38" y="54" font-size="14">21</text>
        <text class="soft text" x="-38" y="10" font-size="14">28</text>
        <line class="axis" x1="-8" y1="190" y2="190"/>
        <line class="axis" x1="-8" y1="143" y2="143"/>
        <line class="axis" x1="-8" y1="96" y2="96"/>
        <line class="axis" x1="-8" y1="49" y2="49"/>
        <line class="axis" x1="-8" y1="0" y2="0"/>
        <rect fill="#3b82f6" x="64" y="15" width="504" height="175" rx="5"/>
        <text class="soft text" x="315" y="212" font-size="16" text-anchor="middle">May 1</text>
      </g>
    </g>
  </g>
</svg>
